# xmcd
#
# Track frame offsets:
#	150
#	12875
#	25590
#	37590
#	49070
#	60860
#	71762
#	84772
#	96077
#
# Disc length: 1462 seconds
#
# Revision: 0
# Processed by: cddbd v1.5.1PL0 Copyright (c) Steve Scherf et al.
# Submitted via: dBpowerAMP V4.0
#
DISCID=5705b409
DTITLE=Eddy Arnold - Then You Can Tell Me Goodbye
DYEAR=1999
DGENRE=Country
TTITLE0=Then You Can Tell Me Goodbye
TTITLE1=We'll Sing In The Sunshine
TTITLE2=He'll Have To Go
TTITLE3=It Only Hurts For A Little While
TTITLE4=No Other Arms-No Other Lips
TTITLE5=Lonely People
TTITLE6=The Green Leaves Of Summer
TTITLE7=The Battle Of New Orleans
TTITLE8=My Own True Love
EXTD=
EXTT0=
EXTT1=
EXTT2=
EXTT3=
EXTT4=
EXTT5=
EXTT6=
EXTT7=
EXTT8=
PLAYORDER=
